<svg width="48" height="49" viewBox="0 0 48 49" fill="none" xmlns="http://www.w3.org/2000/svg">
<path d="M24 28.75H26C28.2 28.75 30 26.95 30 24.75V4.75H12C9 4.75 6.38002 6.40998 5.02002 8.84998" stroke="#292D32" stroke-width="1.5" stroke-linecap="round" stroke-linejoin="round"/>
<path d="M4 34.75C4 38.07 6.68 40.75 10 40.75H12C12 38.55 13.8 36.75 16 36.75C18.2 36.75 20 38.55 20 40.75H28C28 38.55 29.8 36.75 32 36.75C34.2 36.75 36 38.55 36 40.75H38C41.32 40.75 44 38.07 44 34.75V28.75H38C36.9 28.75 36 27.85 36 26.75V20.75C36 19.65 36.9 18.75 38 18.75H40.58L37.16 12.77C36.44 11.53 35.1201 10.75 33.6801 10.75H30V24.75C30 26.95 28.2 28.75 26 28.75H24" stroke="#292D32" stroke-width="1.5" stroke-linecap="round" stroke-linejoin="round"/>
<path d="M16 44.75C18.2091 44.75 20 42.9591 20 40.75C20 38.5409 18.2091 36.75 16 36.75C13.7909 36.75 12 38.5409 12 40.75C12 42.9591 13.7909 44.75 16 44.75Z" stroke="#292D32" stroke-width="1.5" stroke-linecap="round" stroke-linejoin="round"/>
<path d="M32 44.75C34.2091 44.75 36 42.9591 36 40.75C36 38.5409 34.2091 36.75 32 36.75C29.7909 36.75 28 38.5409 28 40.75C28 42.9591 29.7909 44.75 32 44.75Z" stroke="#292D32" stroke-width="1.5" stroke-linecap="round" stroke-linejoin="round"/>
<path d="M44 24.75V28.75H38C36.9 28.75 36 27.85 36 26.75V20.75C36 19.65 36.9 18.75 38 18.75H40.58L44 24.75Z" stroke="#292D32" stroke-width="1.5" stroke-linecap="round" stroke-linejoin="round"/>
<path d="M4 16.75H16" stroke="#292D32" stroke-width="1.5" stroke-linecap="round" stroke-linejoin="round"/>
<path d="M4 22.75H12" stroke="#292D32" stroke-width="1.5" stroke-linecap="round" stroke-linejoin="round"/>
<path d="M4 28.75H8" stroke="#292D32" stroke-width="1.5" stroke-linecap="round" stroke-linejoin="round"/>
</svg>
