<svg width="48" height="49" viewBox="0 0 48 49" fill="none" xmlns="http://www.w3.org/2000/svg">
<g clip-path="url(#clip0_1_1469)">
<path d="M40 25.1499V28.55C40 34.85 36.4 37.55 31 37.55H13C7.6 37.55 4 34.85 4 28.55V17.75C4 11.45 7.6 8.75 13 8.75H18.4C18.14 9.51 18 10.35 18 11.25V19.05C18 20.99 18.64 22.63 19.78 23.77C20.92 24.91 22.56 25.55 24.5 25.55V28.3301C24.5 29.3501 25.66 29.9699 26.52 29.4099L32.3 25.55H37.5C38.4 25.55 39.24 25.4099 40 25.1499Z" stroke="#292D32" stroke-width="1.5" stroke-miterlimit="10" stroke-linecap="round" stroke-linejoin="round"/>
<path d="M44 11.25V19.05C44 22.03 42.48 24.2699 40 25.1499C39.24 25.4099 38.4 25.55 37.5 25.55H32.3L26.52 29.4099C25.66 29.9699 24.5 29.3501 24.5 28.3301V25.55C22.56 25.55 20.92 24.91 19.78 23.77C18.64 22.63 18 20.99 18 19.05V11.25C18 10.35 18.14 9.51 18.4 8.75C19.28 6.27 21.52 4.75 24.5 4.75H37.5C41.4 4.75 44 7.35 44 11.25Z" stroke="#292D32" stroke-width="1.5" stroke-miterlimit="10" stroke-linecap="round" stroke-linejoin="round"/>
<path d="M14.8 44.75H29.2" stroke="#292D32" stroke-width="1.5" stroke-miterlimit="10" stroke-linecap="round" stroke-linejoin="round"/>
<path d="M22 37.5498V44.7498" stroke="#292D32" stroke-width="1.5" stroke-miterlimit="10" stroke-linecap="round" stroke-linejoin="round"/>
<path d="M36.991 15.25H37.009" stroke="#292D32" stroke-width="1.5" stroke-linecap="round" stroke-linejoin="round"/>
<path d="M31.3914 15.25H31.4094" stroke="#292D32" stroke-width="1.5" stroke-linecap="round" stroke-linejoin="round"/>
<path d="M25.7908 15.25H25.8088" stroke="#292D32" stroke-width="1.5" stroke-linecap="round" stroke-linejoin="round"/>
</g>
<defs>
<clipPath id="clip0_1_1469">
<rect width="48" height="48" fill="white" transform="translate(0 0.3125)"/>
</clipPath>
</defs>
</svg>
