<svg width="80" height="80" viewBox="0 0 80 80" fill="none" xmlns="http://www.w3.org/2000/svg">
<g clip-path="url(#clip0_3_2879)">
<path d="M70.5035 0H9.49653C4.25174 0 0 4.25174 0 9.49653V70.5035C0 75.7483 4.25174 80 9.49653 80H70.5035C75.7483 80 80 75.7483 80 70.5035V9.49653C80 4.25174 75.7483 0 70.5035 0Z" fill="white"/>
<path d="M40.747 15.0144H18.4333V64.9818H27.5592V51.5218H41.6962C53.9347 51.5218 61.5478 42.9594 61.5478 33.3683C61.5478 23.3801 53.5338 15.0144 40.747 15.0144ZM49.9409 42.7362H27.5592V21.4891H32.3094L36.0914 26.1561H49.9372L49.9409 42.7362ZM49.9409 25.3392C49.9863 25.3846 36.8099 25.3392 36.8099 25.3392L35.5505 23.7016H49.922C49.922 23.7016 49.8956 25.3051 49.9409 25.3392Z" fill="#009FE3"/>
</g>
<defs>
<clipPath id="clip0_3_2879">
<rect width="80" height="80" fill="white"/>
</clipPath>
</defs>
</svg>
