<svg width="49" height="49" viewBox="0 0 49 49" fill="none" xmlns="http://www.w3.org/2000/svg">
<g clip-path="url(#clip0_1_1462)">
<path d="M15.96 37.4499L22.16 42.2499C22.96 43.0499 24.76 43.4499 25.96 43.4499H33.56C35.96 43.4499 38.56 41.6499 39.16 39.2499L43.96 24.6499C44.96 21.8499 43.16 19.4499 40.16 19.4499H32.16C30.96 19.4499 29.96 18.4499 30.16 17.0499L31.16 10.6499C31.56 8.84994 30.36 6.84994 28.56 6.24994C26.96 5.64994 24.96 6.44994 24.16 7.64994L15.96 19.8499" stroke="#292D32" stroke-width="1.5" stroke-miterlimit="10"/>
<path d="M5.76001 37.4498V17.8498C5.76001 15.0498 6.96001 14.0498 9.76001 14.0498H11.76C14.56 14.0498 15.76 15.0498 15.76 17.8498V37.4498C15.76 40.2498 14.56 41.2498 11.76 41.2498H9.76001C6.96001 41.2498 5.76001 40.2498 5.76001 37.4498Z" stroke="#292D32" stroke-width="1.5" stroke-linecap="round" stroke-linejoin="round"/>
</g>
<defs>
<clipPath id="clip0_1_1462">
<rect width="48" height="48" fill="white" transform="translate(0.5 0.3125)"/>
</clipPath>
</defs>
</svg>
